<svg width="21" height="21" viewBox="0 0 21 21" fill="none" xmlns="http://www.w3.org/2000/svg">
<path d="M18.9583 8.1875C18.8388 7.83139 18.6999 7.48555 18.5416 7.15M17.1874 5.06583C16.923 4.75861 16.6408 4.47111 16.3408 4.20333M13.1249 2.35417C13.496 2.47478 13.8589 2.61896 14.2116 2.78583M10.6249 9.4375C10.3777 9.4375 10.136 9.51081 9.93046 9.64816C9.7249 9.78551 9.56468 9.98074 9.47007 10.2091C9.37546 10.4376 9.35071 10.6889 9.39894 10.9314C9.44717 11.1738 9.56622 11.3966 9.74104 11.5714C9.91585 11.7462 10.1386 11.8652 10.3811 11.9135C10.6235 11.9617 10.8749 11.937 11.1033 11.8423C11.3317 11.7477 11.5269 11.5875 11.6643 11.382C11.8016 11.1764 11.8749 10.9347 11.8749 10.6875M10.6249 9.4375C10.9564 9.4375 11.2744 9.56919 11.5088 9.80362C11.7432 10.038 11.8749 10.356 11.8749 10.6875M10.6249 9.4375L10.6249 7.35417M11.8749 10.6875L15.6249 10.6875" stroke="white" stroke-width="1.5" stroke-linecap="round" stroke-linejoin="round"/>
<path d="M10.6249 2.35433C6.02242 2.35433 2.29159 6.08516 2.29159 10.6877C2.29159 15.2902 6.02242 19.021 10.6249 19.021C15.2274 19.021 18.9583 15.2902 18.9583 10.6877" stroke="white" stroke-width="1.5" stroke-linecap="round" stroke-linejoin="round"/>
</svg>
